inDegrees=yes
name=ik_lifting_orientations
DataType=double
version=3
OpenSimVersion=4.5-2024-01-10-34fd6af
endheader
time	pelvis_tilt	pelvis_list	pelvis_rotation	pelvis_tx	pelvis_ty	pelvis_tz	hip_flexion_r	hip_adduction_r	hip_rotation_r	knee_angle_r	knee_angle_r_beta	ankle_angle_r	subtalar_angle_r	mtp_angle_r	hip_flexion_l	hip_adduction_l	hip_rotation_l	knee_angle_l	knee_angle_l_beta	ankle_angle_l	subtalar_angle_l	mtp_angle_l	lumbar_extension	lumbar_bending	lumbar_rotation	arm_flex_r	arm_add_r	arm_rot_r	elbow_flex_r	pro_sup_r	wrist_flex_r	wrist_dev_r	arm_flex_l	arm_add_l	arm_rot_l	elbow_flex_l	pro_sup_l	wrist_flex_l	wrist_dev_l
0.02	-0.004300804198752497	0.003598409132872222	-90.47897051999483	0	0.9399999998679526	0	45.17933927571078	-10.61349086556821	0	60.15849759628622	1.049963856108289	-5.234176026702682	0	0	45.17933927571078	-10.61349086556821	0	60.15849759628622	1.049963856108289	-5.234176026702682	0	0	0.006761949705175109	0.005919426471337479	-0.002950744842633253	-0.2375614340618272	-0.05773599065798399	-0.002436011347468324	0.4865675920928663	1.971276997922104	0	0	0	-10.51598090103537	0	88.07045580836578	1.971276997922104	0	0
0.03	0.0009574172390858598	0.002421770722240563	-90.47914088076537	0	0.9399999998679526	0	45.17167484143047	-10.53289960743686	0	60.15314361379085	1.049870411485651	-5.19606281237173	0	0	45.17167484143047	-10.53289960743686	0	60.15314361379085	1.049870411485651	-5.19606281237173	0	0	0.1256287590771551	-0.01261292505317475	-0.06000151425614781	-0.3606739558501546	-0.07660458622323242	0.05583743833259225	0.4981735714818818	1.911709221502498	0	0	0	-10.61672279035613	0	88.12875630797973	1.911709221502498	0	0
0.04	-0.08783146654408586	-0.08089530454388175	-90.00586298461012	0	0.9399999998679526	0	45.17163657871089	-10.5324939827378	0	60.15311635578563	1.049869935743712	-5.195869034512215	0	0	45.17163657871089	-10.5324939827378	0	60.15311635578563	1.049869935743712	-5.195869034512215	0	0	0.1126353347279686	0.07428949489294134	-0.5214906724710718	-0.4288117600919691	-0.06968989148428884	0.0417558860019704	0.499666423110588	1.911410545828886	0	0	0	-10.61723033038156	0	88.12904862953637	1.911410545828886	0	0
0.05	-0.0769876547657517	-0.00793623439101597	-89.99999553129008	0	0.9399999998679526	0	45.17159746666871	-10.53207159480944	0	60.15308891150987	1.049869456750739	-5.195666554336247	0	0	45.17159746666871	-10.53207159480944	0	60.15308891150987	1.049869456750739	-5.195666554336247	0	0	0.2987328368942875	0.05107129058077878	-0.6678299035365297	-0.54686469664434	-0.09726721803230637	0.1516189930456234	0.5026762647274953	1.911107007962411	0	0	0	-10.61774360326821	0	88.12934570968491	1.911107007962411	0	0
0.06	-0.09823776313159575	0.1216209797578895	-89.87178330411734	0	0.9399999998679526	0	45.16711225610678	-10.48975040449417	0	60.14992210588202	1.049814185565763	-5.176437545999667	0	0	45.16711225610678	-10.48975040449417	0	60.14992210588202	1.049814185565763	-5.176437545999667	0	0	0.4940334695201045	0.06717729101829273	-0.8510231581118461	-0.8585946033070176	-0.1814089173922455	0.2009287870711578	1.008286226910703	1.875729677824474	0	0	0	-10.67811827727952	0	88.16397046375538	1.875729677824474	0	0
0.07000000000000001	-0.07553391796524846	0.1299167137044374	-90.10602331869602	0	0.9399999998679526	0	45.16707222849995	-10.48934410288708	0	60.14989375334252	1.049813690720597	-5.176246975463071	0	0	45.16707222849995	-10.48934410288708	0	60.14989375334252	1.049813690720597	-5.176246975463071	0	0	0.5762726465230005	0.04076395310120103	-0.8090665424576868	-0.6910812638244896	-0.1211430648823576	0.3970790984081639	0.5133244501338182	1.875416120799746	0	0	0	-10.67865171644282	0	88.16427735023275	1.875416120799746	0	0
0.08	-0.05627514728428428	0.1799986466148775	-90.11211413854292	0	0.9399999998679526	0	45.16703404191308	-10.48895785297958	0	60.14986664418677	1.049813217576572	-5.176065965898913	0	0	45.16703404191308	-10.48895785297958	0	60.14986664418677	1.049813217576572	-5.176065965898913	0	0	0.6152792394679336	0.01528303063881217	-1.048324357892828	-0.6853252456595512	-0.1047598881538444	0.6751677052996384	0.5207576883974803	1.875116707883841	0	0	0	-10.67916147778364	0	88.1645703935249	1.875116707883841	0	0
0.09	-0.04463025999683499	0.2486943134423474	-90.16945741138356	0	0.9399999998679526	0	45.16001558983483	-10.42589844518462	0	60.1448887058029	1.049726336161812	-5.147945054788951	0	0	45.16001558983483	-10.42589844518462	0	60.1448887058029	1.049726336161812	-5.147945054788951	0	0	0.7494884555897764	-0.004968270975315874	-1.119817520090464	-0.9840420065828347	-0.1648914895326153	0.7967852730995897	1.021522051296974	1.81939803489778	0	0	0	-10.77462603462285	0	88.2191038085229	1.81939803489778	0	0
0.1	-0.007432164085834178	0.1900961048642455	-90.41113749408564	0	0.9399999998679526	0	45.15998752424576	-10.42564132678222	0	60.14486854542408	1.049725984296823	-5.147828910583388	0	0	45.15998752424576	-10.42564132678222	0	60.14486854542408	1.049725984296823	-5.147828910583388	0	0	0.7299147703266538	-0.0325052453706125	-1.071610016545877	-0.8084691067410328	-0.1197707482849496	1.000924911607375	0.5540171064217074	1.819174916592881	0	0	0	-10.77500920956767	0	88.21932218060229	1.819174916592881	0	0
0.11	-0.0247618979304454	0.2293744462321128	-90.16298204275274	0	0.9399999998679526	0	45.15570059732977	-10.39096392146573	0	60.14179470768831	1.049672335707662	-5.132956756509261	0	0	45.15570059732977	-10.39096392146573	0	60.14179470768831	1.049672335707662	-5.132956756509261	0	0	0.8156415122551421	-0.03238831621914223	-1.511347755666882	-1.079945687821616	-0.1701426854727136	1.184795992251998	1.032104480713682	1.784648386216375	0	0	0	-10.83469223283666	0	88.25311430527242	1.784648386216375	0	0
0.12	-0.02301522887466157	0.1226137581834038	-90.1786680859657	0	0.9399999998679526	0	45.15253825370727	-10.36602425535557	0	60.13952311467676	1.049632688930345	-5.122358021164547	0	0	45.15253825370727	-10.36602425535557	0	60.13952311467676	1.049632688930345	-5.122358021164547	0	0	0.6789138377848505	-0.04420697682062897	-1.623228987193866	-0.8033948775659757	-0.1010580182251637	1.29015642215146	0.5324887305637441	1.759092686529731	0	0	0	-10.87895695010424	0	88.27812642472699	1.759092686529731	0	0
0.13	0.039060308199605	0.1153462070819246	-90.35405991425446	0	0.9399999998679526	0	45.15251944353508	-10.3658695144545	0	60.13950941838483	1.049632449884955	-5.122290797824867	0	0	45.15251944353508	-10.3658695144545	0	60.13950941838483	1.049632449884955	-5.122290797824867	0	0	0.7339294388115202	-0.09965000864918387	-1.616051608775848	-0.8606037908601959	-0.08102796913106373	1.452842325733	0.5191420807430611	1.758940820358349	0	0	0	-10.8792203244144	0	88.27827506059738	1.758940820358349	0	0
0.14	0.08390665778671122	0.02689477457742348	-90.52833165497732	0	0.9399999998679526	0	45.15250470680059	-10.36575008225799	0	60.13949856624513	1.049632260479387	-5.122239070251566	0	0	45.15250470680059	-10.36575008225799	0	60.13949856624513	1.049632260479387	-5.122239070251566	0	0	0.6740313024450624	-0.1413272389432802	-1.573424998438544	-0.9002606063379921	-0.08552816260937345	1.585867510420027	0.5301115131675876	1.758821313351863	0	0	0	-10.87942834710002	0	88.27839202564526	1.758821313351863	0	0
0.15	0.1147765294458794	0.006570970646322425	-90.32761306979745	0	0.9399999998679526	0	45.14602343704785	-10.31829633794549	0	60.13480873357055	1.049550407457848	-5.102633327265482	0	0	45.14602343704785	-10.31829633794549	0	60.13480873357055	1.049550407457848	-5.102633327265482	0	0	0.6651951210298066	-0.183890029144555	-1.99108225533508	-0.9575836987622275	-0.1018438721736909	1.798436736690035	0.6453000528548385	1.705919865447404	0	0	0	-10.97161967363528	0	88.33016828710399	1.705919865447404	0	0
0.16	0.05061771529102353	-0.0563230341524134	-90.08900066087436	0	0.9399999998679526	0	45.14598561253436	-10.31803290277973	0	60.13477941045934	1.04954989567301	-5.102524446817083	0	0	45.14598561253436	-10.31803290277973	0	60.13477941045934	1.04954989567301	-5.102524446817083	0	0	0.6319245890209034	-0.1424899305933499	-2.458300369233842	-0.9783222387518605	-0.03501450056223698	2.028494017034926	0.5493026245889062	1.705603943850423	0	0	0	-10.97218162333548	0	88.3304774896727	1.705603943850423	0	0
0.17	0.1112895916075012	-0.1138637538628349	-90.33116023097607	0	0.9399999998679526	0	45.14594990916775	-10.31776284112488	0	60.13475343359504	1.049549442291199	-5.102411027322945	0	0	45.14594990916775	-10.31776284112488	0	60.13475343359504	1.049549442291199	-5.102411027322945	0	0	0.6340021547544498	-0.2099534760966499	-2.525486373769994	-1.030215274702633	-0.03053182494927764	2.336643207044537	0.5427229543812736	1.705313046550638	0	0	0	-10.97268847781638	0	88.3307621996549	1.705313046550638	0	0
0.18	0.1411329068917759	-0.1066905527860905	-90.44350170958683	0	0.9399999998679526	0	45.14593098358497	-10.31762171904926	0	60.13473951589717	1.049549199381546	-5.102351935075179	0	0	45.14593098358497	-10.31762171904926	0	60.13473951589717	1.049549199381546	-5.102351935075179	0	0	0.7509319146616635	-0.2349487303159885	-2.585980615734377	-1.135756734072195	-0.03863639781518798	2.512759611381818	0.5352620480463171	1.705158199278993	0	0	0	-10.97295922916728	0	88.33091375340729	1.705158199278993	0	0
0.19	0.1757158991210015	-0.04439333201201785	-90.50171260462091	0	0.9399999998679526	0	45.13973955018559	-10.27622517471136	0	60.13022144382273	1.049470344148005	-5.085825596483319	0	0	45.13973955018559	-10.27622517471136	0	60.13022144382273	1.049470344148005	-5.085825596483319	0	0	0.8891455822284676	-0.2808623553764292	-2.663176335154141	-1.21482589250626	-0.007573555155159871	2.650272243323627	0.5345054350550008	1.654006331318358	0	0	0	-11.06276133022723	0	88.38097770178891	1.654006331318358	0	0
0.2	0.1615922674585443	0.02123353290713711	-90.37241173182483	0	0.9399999998679526	0	45.13586807488717	-10.25329598370581	0	60.12736193826766	1.04942043636109	-5.077072168176471	0	0	45.13586807488717	-10.25329598370581	0	60.12736193826766	1.04942043636109	-5.077072168176471	0	0	1.075738677809742	-0.2748069922774953	-2.922798472712906	-1.39015278119443	-0.01660539314879385	2.776579182017004	0.5737089143862463	1.621484205947573	0	0	0	-11.12044544791959	0	88.41280817838879	1.621484205947573	0	0
